<?xml version="1.0" encoding="iso-8859-1"?>
<!-- Uploaded to: SVG Repo, www.svgrepo.com, Generator: SVG Repo Mixer Tools -->
<!DOCTYPE svg PUBLIC "-//W3C//DTD SVG 1.1//EN" "http://www.w3.org/Graphics/SVG/1.1/DTD/svg11.dtd">
<svg fill="#000000" version="1.1" id="Capa_1" xmlns="http://www.w3.org/2000/svg" xmlns:xlink="http://www.w3.org/1999/xlink" 
	 width="800px" height="800px" viewBox="0 0 24 24" xml:space="preserve">
<g>
	<g>
		<path d="M20,0H4C1.794,0,0,1.794,0,4v16c0,2.206,1.794,4,4,4h16c2.206,0,4-1.794,4-4V4C24,1.794,22.206,0,20,0z M22,20
			c0,1.104-0.896,2-2,2H4c-1.103,0-2-0.896-2-2V4c0-1.103,0.897-2,2-2h16c1.104,0,2,0.897,2,2V20z"/>
		<path d="M17.423,6.779H13.9l-0.918,1.687c-0.278,0.513-0.535,1.046-0.812,1.602h-0.042c-0.277-0.491-0.555-1.025-0.854-1.56
			l-1.025-1.729h-3.63l3.459,5.125L6.534,17.22H10.1l0.981-1.879c0.256-0.512,0.535-1.024,0.79-1.58h0.064
			c0.256,0.534,0.512,1.067,0.811,1.58l1.046,1.879h3.673l-3.48-5.466L17.423,6.779z"/>
	</g>
</g>
</svg>